<svg id="Capa_1" enable-background="new 0 0 510 510" height="512" viewBox="0 0 510 510" width="512" xmlns="http://www.w3.org/2000/svg" xmlns:xlink="http://www.w3.org/1999/xlink"><linearGradient id="lg1"><stop offset="0" stop-color="#edf5ff"/><stop offset="1" stop-color="#d5e8fe"/></linearGradient><linearGradient id="SVGID_1_" gradientUnits="userSpaceOnUse" x1="385.47" x2="417.548" xlink:href="#lg1" y1="62.237" y2="62.237"/><linearGradient id="lg2"><stop offset="0" stop-color="#07485e" stop-opacity="0"/><stop offset=".2708" stop-color="#074459" stop-opacity=".271"/><stop offset=".597" stop-color="#05394a" stop-opacity=".597"/><stop offset=".9505" stop-color="#032632" stop-opacity=".951"/><stop offset="1" stop-color="#03232e"/></linearGradient><linearGradient id="SVGID_2_" gradientUnits="userSpaceOnUse" x1="410.063" x2="410.063" xlink:href="#lg2" y1="68.79" y2="-21.753"/><linearGradient id="SVGID_3_" gradientUnits="userSpaceOnUse" x1="410.063" x2="410.063" xlink:href="#lg1" y1="84.199" y2="121.874"/><linearGradient id="SVGID_4_" gradientUnits="userSpaceOnUse" x1="310.126" x2="510" xlink:href="#lg1" y1="316.187" y2="316.187"/><linearGradient id="lg3"><stop offset="0" stop-color="#9ae1d3"/><stop offset="1" stop-color="#80d1c1"/></linearGradient><linearGradient id="SVGID_5_" gradientUnits="userSpaceOnUse" x1="352.36" x2="434.436" xlink:href="#lg3" y1="301.662" y2="349.319"/><linearGradient id="SVGID_6_" gradientUnits="userSpaceOnUse" x1="410.063" x2="410.063" xlink:href="#lg2" y1="461.201" y2="530.454"/><linearGradient id="SVGID_7_" gradientUnits="userSpaceOnUse" x1="400.039" x2="477.472" xlink:href="#lg2" y1="166.416" y2="143.219"/><linearGradient id="SVGID_8_" gradientUnits="userSpaceOnUse" x1="355.252" x2="355.252" xlink:href="#lg1" y1="-8.105" y2="38.142"/><linearGradient id="SVGID_9_" gradientUnits="userSpaceOnUse" x1="386.206" x2="255.215" y1="297.107" y2="209.992"><stop offset="0" stop-color="#fff" stop-opacity="0"/><stop offset="1" stop-color="#fff"/></linearGradient><linearGradient id="SVGID_10_" gradientUnits="userSpaceOnUse" x1="440.643" x2="214.324" y1="442.075" y2="277.571"><stop offset="0" stop-color="#07485e" stop-opacity="0"/><stop offset=".2683" stop-color="#063b4d" stop-opacity=".268"/><stop offset=".7164" stop-color="#042936" stop-opacity=".716"/><stop offset="1" stop-color="#03232e"/></linearGradient><linearGradient id="lg4"><stop offset="0" stop-color="#fce9cb"/><stop offset="1" stop-color="#ffbd95"/></linearGradient><linearGradient id="SVGID_11_" gradientTransform="matrix(.253 -.967 .967 .253 1463.074 -3086.044)" gradientUnits="userSpaceOnUse" x1="-3626.785" x2="-3633.676" xlink:href="#lg4" y1="-291.43" y2="-256.165"/><linearGradient id="SVGID_12_" gradientTransform="matrix(.034 -.999 .999 .034 1475.752 -3736.855)" gradientUnits="userSpaceOnUse" x1="-4103.645" x2="-4130.61" xlink:href="#lg4" y1="-1048.316" y2="-1021.351"/><linearGradient id="SVGID_13_" gradientTransform="matrix(.253 -.967 .967 .253 1463.074 -3086.044)" gradientUnits="userSpaceOnUse" x1="-3586.503" x2="-3621.039" xlink:href="#lg4" y1="-248.829" y2="-214.293"/><linearGradient id="SVGID_14_" gradientTransform="matrix(-1 .017 -.017 -1 -1676.972 -5764.538)" gradientUnits="userSpaceOnUse" x1="-1804.546" x2="-1783.481" xlink:href="#lg4" y1="-6215.359" y2="-6037.57"/><linearGradient id="SVGID_15_" gradientUnits="userSpaceOnUse" x1="175.759" x2="205.022" y1="371.195" y2="448.096"><stop offset="0" stop-color="#ffdecf" stop-opacity="0"/><stop offset="1" stop-color="#fff"/></linearGradient><linearGradient id="SVGID_16_" gradientUnits="userSpaceOnUse" x1="203.093" x2="228.118" xlink:href="#lg3" y1="177.49" y2="202.514"/><linearGradient id="SVGID_17_" gradientUnits="userSpaceOnUse" x1="275.972" x2="168.5" xlink:href="#lg2" y1="251.695" y2="144.223"/><linearGradient id="SVGID_18_" gradientUnits="userSpaceOnUse" x1="203.529" x2="261.239" y1="180.05" y2="237.76"><stop offset="0" stop-color="#ff637b"/><stop offset="1" stop-color="#e63950"/></linearGradient><linearGradient id="lg5"><stop offset="0" stop-color="#e63950" stop-opacity="0"/><stop offset=".0467" stop-color="#e4354b" stop-opacity=".047"/><stop offset=".4669" stop-color="#d31822" stop-opacity=".467"/><stop offset=".7991" stop-color="#c90709" stop-opacity=".799"/><stop offset="1" stop-color="#c50000"/></linearGradient><linearGradient id="SVGID_19_" gradientUnits="userSpaceOnUse" x1="234.494" x2="185.587" xlink:href="#lg5" y1="205.01" y2="224.27"/><linearGradient id="SVGID_20_" gradientUnits="userSpaceOnUse" x1="228.389" x2="230.553" xlink:href="#lg5" y1="198.232" y2="222.47"/><g><g><g><path d="m378.88 27.519h62.367v69.436h-62.367z" fill="url(#SVGID_1_)"/><path d="m378.88 31.694 62.366 62.366v-66.541h-62.366z" fill="url(#SVGID_2_)"/></g><path d="m362.001 76.544h96.125c14.74 0 26.69 11.95 26.69 26.69v38.202h-149.505v-38.202c0-14.74 11.949-26.69 26.69-26.69z" fill="url(#SVGID_3_)"/><g><g><path d="m486.417 510h-152.707c-13.025 0-23.583-10.559-23.583-23.583v-340.459c0-13.025 10.559-23.583 23.583-23.583h152.707c13.025 0 23.583 10.559 23.583 23.583v340.458c0 13.025-10.559 23.584-23.583 23.584z" fill="url(#SVGID_4_)"/><path d="m477.669 482.447h-135.212c-8.576 0-15.528-6.952-15.528-15.528v-263.503c0-8.576 6.952-15.528 15.528-15.528h135.212c8.576 0 15.528 6.952 15.528 15.528v263.503c.001 8.576-6.952 15.528-15.528 15.528z" fill="url(#SVGID_5_)"/><path d="m310.126 431.988v50.695c0 15.087 9.116 27.317 20.36 27.317h159.154c11.245 0 20.36-12.23 20.36-27.317v-50.695z" fill="url(#SVGID_6_)"/></g></g><path d="m393.19 138.938h33.746v48.949h-33.746z" fill="url(#SVGID_7_)"/><path d="m250.245 78.977c-4.17 0-8.34-1.591-11.521-4.773-6.363-6.363-6.363-16.68 0-23.043l29.166-29.166c14.183-14.183 33.042-21.995 53.102-21.995h139.267c8.999 0 16.294 7.295 16.294 16.294s-7.295 16.294-16.294 16.294h-139.267c-11.355 0-22.03 4.422-30.06 12.451l-29.166 29.166c-3.181 3.182-7.351 4.772-11.521 4.772z" fill="url(#SVGID_8_)"/><path d="m489.64 122.375h-113.394c-22.574 0-40.874 24.553-40.874 54.84v332.785h154.268c11.245 0 20.36-12.23 20.36-27.317v-332.991c0-15.087-9.116-27.317-20.36-27.317z" fill="url(#SVGID_9_)"/></g><path d="m510 486.417v-128.932l-58.312-58.311c-11.625-11.18-30.438-8.073-39.328.847l-5.01 5.073c-.565-.644-4.292-7.595-5.127-8.391-6.104-5.878-13.027-8.733-20.881-8.597-7.927.137-13.801 2.321-19.696 8.48l-4.399 4.504c-.176-.117-4.473-4.719-5.803-5.516-5.659-3.427-11.185-4.239-17.143-2.786-6.014 1.468-10.463 4.246-13.895 9.951l-10.281 16.422v167.255c0 13.025 10.559 23.583 23.583 23.583h152.707c13.026.001 23.585-10.558 23.585-23.582z" fill="url(#SVGID_10_)"/><g><path d="m291.861 319.889c-4.126 1.688-7.335 4.786-8.636 8.868l-10.575 33.156c-3.891 12.188-11.473 22.938-21.843 31.332 20.039 6.103 40.939-1.238 48.246-17.045 1.859-4.021 3.486-8.15 4.873-12.375l9.312-28.401c1.687-5.143-.068-10.633-4.076-14.716-1.044-.509-2.137-.944-3.292-1.289-4.923-1.493-9.92-1.202-14.009.47z" fill="url(#SVGID_11_)"/><path d="m354.957 320.039-24.21 39.626c-3.604 5.896-7.474 11.588-11.594 17.064-16.195 21.527-46.133 27.176-69.154 13.186 16.911-9.82 31.27-23.811 41.525-40.842l27.883-46.333c3.431-5.704 8.881-9.483 14.894-10.951 5.958-1.454 12.484-.642 18.143 2.786.013.008.027.016.04.024 2.617 1.575 4.476 4.18 5.23 7.14 1.528 5.994.737 12.581-2.757 18.3z" fill="url(#SVGID_12_)"/><path d="m399.179 328.224-41.422 42.676c-6.165 6.349-12.606 12.369-19.297 18.048-26.303 22.326-65.298 20.939-90.112-3.031 23.897-7.498 45.781-20.927 63.396-39.311l47.903-50.019c5.895-6.159 13.77-9.342 21.696-9.48 7.853-.136 15.777 2.719 21.881 8.597.014.014.029.027.043.041 2.742 2.625 4.362 6.253 4.509 10.046.31 8.033-2.53 16.183-8.597 22.433z" fill="url(#SVGID_13_)"/><path d="m451.688 299.174c-11.625-11.18-30.171-10.8-41.328.847l-45.417 47.413c-17.675 18.452-39.859 31.616-64.067 38.474-.523-14.685-12.751-26.307-27.57-26.051l-17.925.31c-35.52.615-70.413-9.348-100.204-28.61-34.243-22.141-77.499-25.258-114.594-8.258l-19.227 12.111c-13.321 8.666-21.356 23.48-21.356 39.372v77.335c0 10.529 9.694 18.386 19.995 16.205 61.863-14.661 73.69-6.438 137.27-7.538l73.684-1.275c68.821-1.191 134.353-29.551 182.178-78.843l39.271-40.475c11.181-11.524 10.863-29.888-.71-41.017z" fill="url(#SVGID_14_)"/><path d="m300.876 385.908c-.523-14.685-12.751-26.307-27.57-26.051l-17.925.31c-35.52.615-70.413-9.348-100.204-28.61-34.243-22.141-77.499-25.258-114.594-8.258l-3.501 1.605 71.849 69.405 36.188 8.531c35.809 8.442 72.531 12.391 109.317 11.754l19.35-.335c14.966-.259 27.362-12.609 27.103-27.575-.002-.168-.013-.776-.013-.776z" fill="url(#SVGID_15_)"/></g><g><path d="m249.229 132.832-12.494-19.545c-3.842-6.011-12.622-6.011-16.464 0l-12.135 18.983c-7.591 11.875-16.037 23.233-25.842 33.358-11.352 11.723-18.284 27.749-18.102 45.398.363 35.298 29.905 64.111 65.202 63.632 35.11-.477 63.424-29.086 63.424-64.309 0-17.429-6.937-33.233-18.196-44.814-9.642-9.916-17.944-21.051-25.393-32.703z" fill="url(#SVGID_16_)"/><path d="m292.817 210.349c0-.174-.011-.344-.013-.518l-47.757-46.899c-1.02-1.861-2.996-2.632-5.268-2.632h-21.547c-3.317 0-5.515 2.198-5.515 5.515v22.921h-22.921c-3.316 0-5.515 2.198-5.515 5.515v21.547c0 2.272.772 4.248 2.632 5.268l53.511 52.475c29.821-5.593 52.393-31.749 52.393-63.192z" fill="url(#SVGID_17_)"/><g><path d="m267.712 221.802h-22.431v22.431c0 3.317-2.689 6.005-6.005 6.005h-21.548c-3.316 0-6.005-2.689-6.005-6.005v-22.431h-22.431c-3.316 0-6.005-2.689-6.005-6.005v-21.547c0-3.317 2.689-6.005 6.005-6.005h22.431v-22.431c0-3.317 2.689-6.005 6.005-6.005h21.548c3.316 0 6.005 2.689 6.005 6.005v22.431h22.431c3.316 0 6.005 2.689 6.005 6.005v21.548c0 3.316-2.689 6.004-6.005 6.004z" fill="url(#SVGID_18_)"/><path d="m239.276 250.238h-10.774v-90.429h10.774c3.316 0 6.005 2.689 6.005 6.005v78.419c0 3.316-2.688 6.005-6.005 6.005z" fill="url(#SVGID_19_)"/><path d="m273.717 194.25v10.774h-90.429v-10.774c0-3.316 2.689-6.005 6.005-6.005h78.419c3.316-.001 6.005 2.688 6.005 6.005z" fill="url(#SVGID_20_)"/></g></g></g></svg>